# xmcd CD database file
# Copyright (C) 1993-1998 Ti Kan
#
# Track frame offsets:
#	182
#	19512
#	40267
#	61007
#
# Disc length: 1150 seconds
#
# Revision: 1
# Processed by: cddbd v1.4b41PL1 Copyright (c) Steve Scherf et al.
# Submitted via: CDValet v3.31 - Copyright (c) 1997 Greg Leichner
#
DISCID=24047c04
DTITLE=Mona Lisa (Featuring Lost Boyz) - Can't Be Wasting My Ti
DTITLE=me
DYEAR=1900
DGENRE=
TTITLE0=One Dread One Ball Head (Version With Rap Video)
TTITLE1=One Dread One Ball Head (Version With Rap)
TTITLE2=One Dread One Ball Head (Version Without Rap)
TTITLE3=One Dread One Ball Head (Instrumental)
EXTD=
EXTT0=
EXTT1=
EXTT2=
EXTT3=
PLAYORDER=
